<?xml version="1.0" standalone="no"?>
<!DOCTYPE svg PUBLIC "-//W3C//DTD SVG 20010904//EN"
 "http://www.w3.org/TR/2001/REC-SVG-20010904/DTD/svg10.dtd">
<svg version="1.0" xmlns="http://www.w3.org/2000/svg"
 width="700.000000pt" height="700.000000pt" viewBox="0 0 700.000000 700.000000"
 preserveAspectRatio="xMidYMid meet">
<g transform="translate(0.000000,700.000000) scale(0.100000,-0.100000)"
fill="#000000" stroke="none">
<path d="M1825 6981 c-104 -35 -177 -100 -222 -196 l-28 -60 -3 -466 -3 -466
-508 0 c-504 0 -509 0 -554 -22 -62 -30 -103 -75 -126 -135 -17 -47 -18 -95
-18 -925 0 -698 3 -885 13 -921 17 -57 64 -114 117 -143 42 -22 47 -22 560
-25 l517 -3 1 -1647 c0 -906 2 -1659 4 -1675 7 -51 56 -142 102 -189 25 -26
73 -59 107 -75 l61 -28 2241 -2 c2177 -3 2243 -2 2296 16 130 45 219 142 246
267 6 24 9 1158 9 2653 l0 2612 -724 725 -724 724 -1657 -1 c-1538 0 -1661 -2
-1707 -18z"/>
</g>
</svg>
